<svg xmlns="http://www.w3.org/2000/svg" viewBox="0 0 1200 260" role="img"><rect width="100%" height="100%" rx="22" fill="#0b0b0b"/><text x="55" y="50" fill="#ffca28" font-size="14" font-family="Inter,Arial,sans-serif" font-weight="800" letter-spacing="2">NANO-SGLANG · CHAPTER 01</text><rect x="55.0" y="90" width="158.3" height="72" rx="14" fill="#211c08" stroke="#4d4216"/><text x="134.2" y="133" text-anchor="middle" fill="#f3f3f3" font-size="18" font-family="Inter,Arial,sans-serif" font-weight="700">API</text><path d="M219.3 126 H235.3" stroke="#ffca28" stroke-width="2"/><path d="M227.3 120 L235.3 126 L227.3 132" fill="none" stroke="#ffca28" stroke-width="2"/><rect x="241.3" y="90" width="158.3" height="72" rx="14" fill="#171717" stroke="#353535"/><text x="320.5" y="133" text-anchor="middle" fill="#f3f3f3" font-size="18" font-family="Inter,Arial,sans-serif" font-weight="700">TOKENIZE</text><path d="M405.7 126 H421.7" stroke="#ffca28" stroke-width="2"/><path d="M413.7 120 L421.7 126 L413.7 132" fill="none" stroke="#ffca28" stroke-width="2"/><rect x="427.7" y="90" width="158.3" height="72" rx="14" fill="#171717" stroke="#353535"/><text x="506.8" y="133" text-anchor="middle" fill="#f3f3f3" font-size="18" font-family="Inter,Arial,sans-serif" font-weight="700">RADIX</text><path d="M592.0 126 H608.0" stroke="#ffca28" stroke-width="2"/><path d="M600.0 120 L608.0 126 L600.0 132" fill="none" stroke="#ffca28" stroke-width="2"/><rect x="614.0" y="90" width="158.3" height="72" rx="14" fill="#171717" stroke="#353535"/><text x="693.2" y="133" text-anchor="middle" fill="#f3f3f3" font-size="18" font-family="Inter,Arial,sans-serif" font-weight="700">SCHEDULE</text><path d="M778.3 126 H794.3" stroke="#ffca28" stroke-width="2"/><path d="M786.3 120 L794.3 126 L786.3 132" fill="none" stroke="#ffca28" stroke-width="2"/><rect x="800.3" y="90" width="158.3" height="72" rx="14" fill="#171717" stroke="#353535"/><text x="879.5" y="133" text-anchor="middle" fill="#f3f3f3" font-size="18" font-family="Inter,Arial,sans-serif" font-weight="700">MODEL</text><path d="M964.7 126 H980.7" stroke="#ffca28" stroke-width="2"/><path d="M972.7 120 L980.7 126 L972.7 132" fill="none" stroke="#ffca28" stroke-width="2"/><rect x="986.7" y="90" width="158.3" height="72" rx="14" fill="#211c08" stroke="#4d4216"/><text x="1065.8" y="133" text-anchor="middle" fill="#f3f3f3" font-size="18" font-family="Inter,Arial,sans-serif" font-weight="700">STREAM</text></svg>