<svg xmlns="http://www.w3.org/2000/svg" viewBox="0 0 1200 260" role="img"><rect width="100%" height="100%" rx="22" fill="#0b0b0b"/><text x="55" y="50" fill="#ffca28" font-size="14" font-family="Inter,Arial,sans-serif" font-weight="800" letter-spacing="2">NANO-SGLANG · CHAPTER 13</text><rect x="55.0" y="90" width="195.6" height="72" rx="14" fill="#211c08" stroke="#4d4216"/><text x="152.8" y="133" text-anchor="middle" fill="#f3f3f3" font-size="18" font-family="Inter,Arial,sans-serif" font-weight="700">WORKLOAD</text><path d="M256.6 126 H272.6" stroke="#ffca28" stroke-width="2"/><path d="M264.6 120 L272.6 126 L264.6 132" fill="none" stroke="#ffca28" stroke-width="2"/><rect x="278.6" y="90" width="195.6" height="72" rx="14" fill="#171717" stroke="#353535"/><text x="376.4" y="133" text-anchor="middle" fill="#f3f3f3" font-size="18" font-family="Inter,Arial,sans-serif" font-weight="700">CACHE OFF</text><path d="M480.2 126 H496.2" stroke="#ffca28" stroke-width="2"/><path d="M488.2 120 L496.2 126 L488.2 132" fill="none" stroke="#ffca28" stroke-width="2"/><rect x="502.2" y="90" width="195.6" height="72" rx="14" fill="#171717" stroke="#353535"/><text x="600.0" y="133" text-anchor="middle" fill="#f3f3f3" font-size="18" font-family="Inter,Arial,sans-serif" font-weight="700">CACHE ON</text><path d="M703.8 126 H719.8" stroke="#ffca28" stroke-width="2"/><path d="M711.8 120 L719.8 126 L711.8 132" fill="none" stroke="#ffca28" stroke-width="2"/><rect x="725.8" y="90" width="195.6" height="72" rx="14" fill="#171717" stroke="#353535"/><text x="823.6" y="133" text-anchor="middle" fill="#f3f3f3" font-size="18" font-family="Inter,Arial,sans-serif" font-weight="700">MEASURE</text><path d="M927.4 126 H943.4" stroke="#ffca28" stroke-width="2"/><path d="M935.4 120 L943.4 126 L935.4 132" fill="none" stroke="#ffca28" stroke-width="2"/><rect x="949.4" y="90" width="195.6" height="72" rx="14" fill="#211c08" stroke="#4d4216"/><text x="1047.2" y="133" text-anchor="middle" fill="#f3f3f3" font-size="18" font-family="Inter,Arial,sans-serif" font-weight="700">EVIDENCE</text></svg>